<?xml version="1.0" standalone="no"?><!DOCTYPE svg PUBLIC "-//W3C//DTD SVG 1.1//EN" "http://www.w3.org/Graphics/SVG/1.1/DTD/svg11.dtd"><svg t="1678884059041" class="icon" viewBox="0 0 1024 1024" version="1.1" xmlns="http://www.w3.org/2000/svg" p-id="11494" xmlns:xlink="http://www.w3.org/1999/xlink" width="200" height="200"><path d="M511.77 160.16c-198.82 0-360 161.18-360 360s161.18 360 360 360 360-161.18 360-360-161.17-360-360-360z m209.31 569.31c-27.2 27.21-58.87 48.56-94.11 63.46-36.45 15.42-75.21 23.23-115.2 23.23s-78.75-7.82-115.2-23.23c-35.24-14.91-66.9-36.26-94.11-63.46-27.21-27.2-48.56-58.87-63.46-94.11-15.42-36.45-23.23-75.21-23.23-115.2 0-39.99 7.82-78.75 23.23-115.2 14.91-35.24 36.26-66.9 63.46-94.11 27.2-27.21 58.87-48.56 94.11-63.46 36.45-15.42 75.21-23.23 115.2-23.23s78.75 7.82 115.2 23.23c35.24 14.91 66.9 36.26 94.11 63.46 27.21 27.2 48.56 58.87 63.46 94.11 15.42 36.45 23.23 75.21 23.23 115.2 0 39.99-7.82 78.75-23.23 115.2-14.9 35.24-36.26 66.9-63.46 94.11z" p-id="11495"></path><path d="M426.5 359.98h64v64h-64zM383.96 615.75h256v64.6h-256zM319.96 359.98h64v64h-64zM533.05 359.98h64v64h-64zM639.59 359.98h64v64h-64zM319.96 487.98h64v64h-64zM426.5 487.98h64v64h-64zM533.05 487.98h64v64h-64zM639.59 487.98h64v64h-64z" p-id="11496"></path></svg>