<?xml version="1.0" standalone="no"?><!DOCTYPE svg PUBLIC "-//W3C//DTD SVG 1.1//EN" "http://www.w3.org/Graphics/SVG/1.1/DTD/svg11.dtd"><svg t="1678809676172" class="icon" viewBox="0 0 1024 1024" version="1.1" xmlns="http://www.w3.org/2000/svg" p-id="668" xmlns:xlink="http://www.w3.org/1999/xlink" width="200" height="200"><path d="M698.336 270.72l-62.272 69.856L864 352l-34.048-229.12-57.568 64.64a419.84 419.84 0 0 0-43.392-30.432C532.992 37.248 276.928 98.976 157.12 295.008c-119.84 196-58.112 452.064 137.92 571.904 196 119.84 452.064 58.112 571.904-137.92 9.344-15.264 17.6-30.912 24.736-46.816l-101.44-45.44a304.832 304.832 0 0 1-437.216 135.36A304.832 304.832 0 0 1 251.936 352.96a304.832 304.832 0 0 1 446.4-82.304z" fill="#ef5541" p-id="669"></path></svg>