<?xml version="1.0" standalone="no"?><!DOCTYPE svg PUBLIC "-//W3C//DTD SVG 1.1//EN" "http://www.w3.org/Graphics/SVG/1.1/DTD/svg11.dtd"><svg t="1678884511790" class="icon" viewBox="0 0 1024 1024" version="1.1" xmlns="http://www.w3.org/2000/svg" p-id="690" xmlns:xlink="http://www.w3.org/1999/xlink" width="200" height="200"><path d="M548 257.5l-2.1 2.5c-10.7 12.4-9.8 31 1.8 42.6 55.5 55.7 89.9 132.7 89.9 217.7 0 83.6-33.4 159.5-87.5 215.1-11.2 11.6-12.1 29.8-1.6 42.2 11.9 14.2 33.5 15.1 46.5 1.9 66.2-67.3 107.1-159.7 107.1-261.5 0-102.2-41.1-194.7-107.8-262.2-12.9-13.2-34.4-12.3-46.3 1.7z" p-id="691"></path><path d="M492.2 366.5c-10.9-14.9-32.5-16.7-45.8-3.7l-0.7 0.5c-11.1 10.7-12.5 27.7-3.3 40.1 24.6 33.3 39 74.3 39 118.8 0 41.2-12.5 79.4-33.7 111.3-8.6 12.8-6.1 30.1 5.6 40.1 13.9 11.7 34.9 8.9 45.1-6.1 28.1-41.7 44.4-92 44.4-146 0.1-58.1-18.7-111.5-50.6-155z" p-id="692"></path><path d="M311.4 518.8a48.6 68.7 0 1 0 97.2 0 48.6 68.7 0 1 0-97.2 0Z" p-id="693"></path><path d="M512 64h-5.8C261.5 67.1 64 266.5 64 512c0 247.5 200.6 448 448 448s448-200.5 448-448c0-247.4-200.6-448-448-448z m0 820c-205.4 0-372-166.6-372-372s166.6-372 372-372 372 166.6 372 372-166.6 372-372 372z" p-id="694"></path></svg>