<?xml version="1.0" standalone="no"?><!DOCTYPE svg PUBLIC "-//W3C//DTD SVG 1.1//EN" "http://www.w3.org/Graphics/SVG/1.1/DTD/svg11.dtd"><svg t="1678812278128" class="icon" viewBox="0 0 1024 1024" version="1.1" xmlns="http://www.w3.org/2000/svg" p-id="4955" xmlns:xlink="http://www.w3.org/1999/xlink" width="200" height="200"><path d="M512 768c30.464 0 58.453333 10.666667 80.469333 28.416L512 896l-80.469333-99.584A127.445333 127.445333 0 0 1 512 768zM119.808 59.434667l754.218667 754.261333-60.330667 60.330667-221.013333-221.013334A255.744 255.744 0 0 0 512 640c-60.928 0-116.906667 21.290667-160.853333 56.832l-53.589334-66.389333a339.754667 339.754667 0 0 1 197.205334-75.349334L384 444.330667a468.010667 468.010667 0 0 0-166.912 86.570666L163.413333 464.512A553.984 553.984 0 0 1 316.416 376.746667L218.965333 279.253333a683.050667 683.050667 0 0 0-135.893333 85.632L29.397333 298.538667a768.768 768.768 0 0 1 125.952-82.858667L59.434667 119.808l60.373333-60.373333zM618.666667 438.826667l-97.450667-97.408L512 341.333333c132.053333 0 253.312 46.122667 348.586667 123.178667l-53.674667 66.389333a467.626667 467.626667 0 0 0-188.245333-92.074666zM512 128c182.826667 0 350.72 63.872 482.56 170.538667l-53.632 66.346666A679.808 679.808 0 0 0 512 213.333333c-37.461333 0-74.24 2.986667-110.08 8.832L329.6 149.76A771.285333 771.285333 0 0 1 512 128z" p-id="4956" fill="#ff0000"></path></svg>